<mxfile host="app.diagrams.net" modified="2024-03-30T14:54:33.447Z" agent="Mozilla/5.0 (Macintosh; Intel Mac OS X 10_15_7) AppleWebKit/537.36 (KHTML, like Gecko) Chrome/123.0.0.0 Safari/537.36" etag="DB51SQknSR2a4uUTq7My" version="24.2.1" type="device">
  <diagram id="R2lEEEUBdFMjLlhIrx00" name="Page-1">
    <mxGraphModel dx="2213" dy="2100" grid="1" gridSize="10" guides="1" tooltips="1" connect="1" arrows="1" fold="1" page="1" pageScale="1" pageWidth="1500" pageHeight="1200" math="0" shadow="0" extFonts="Permanent Marker^https://fonts.googleapis.com/css?family=Permanent+Marker">
      <root>
        <mxCell id="0" />
        <mxCell id="1" parent="0" />
        <mxCell id="C-vyLk0tnHw3VtMMgP7b-23" value="users" style="shape=table;startSize=30;container=1;collapsible=1;childLayout=tableLayout;fixedRows=1;rowLines=0;fontStyle=1;align=center;resizeLast=1;strokeWidth=3;fontSize=16;" parent="1" vertex="1">
          <mxGeometry x="260" y="220" width="400" height="190" as="geometry" />
        </mxCell>
        <mxCell id="C-vyLk0tnHw3VtMMgP7b-24" value="" style="shape=partialRectangle;collapsible=0;dropTarget=0;pointerEvents=0;fillColor=none;points=[[0,0.5],[1,0.5]];portConstraint=eastwest;top=0;left=0;right=0;bottom=1;" parent="C-vyLk0tnHw3VtMMgP7b-23" vertex="1">
          <mxGeometry y="30" width="400" height="30" as="geometry" />
        </mxCell>
        <mxCell id="C-vyLk0tnHw3VtMMgP7b-25" value="PK" style="shape=partialRectangle;overflow=hidden;connectable=0;fillColor=none;top=0;left=0;bottom=0;right=0;fontStyle=1;fontSize=16;" parent="C-vyLk0tnHw3VtMMgP7b-24" vertex="1">
          <mxGeometry width="40" height="30" as="geometry">
            <mxRectangle width="40" height="30" as="alternateBounds" />
          </mxGeometry>
        </mxCell>
        <mxCell id="C-vyLk0tnHw3VtMMgP7b-26" value="id int NOT NULL " style="shape=partialRectangle;overflow=hidden;connectable=0;fillColor=none;top=0;left=0;bottom=0;right=0;align=left;spacingLeft=6;fontStyle=5;fontSize=16;" parent="C-vyLk0tnHw3VtMMgP7b-24" vertex="1">
          <mxGeometry x="40" width="360" height="30" as="geometry">
            <mxRectangle width="360" height="30" as="alternateBounds" />
          </mxGeometry>
        </mxCell>
        <mxCell id="C-vyLk0tnHw3VtMMgP7b-27" value="" style="shape=partialRectangle;collapsible=0;dropTarget=0;pointerEvents=0;fillColor=none;points=[[0,0.5],[1,0.5]];portConstraint=eastwest;top=0;left=0;right=0;bottom=0;" parent="C-vyLk0tnHw3VtMMgP7b-23" vertex="1">
          <mxGeometry y="60" width="400" height="30" as="geometry" />
        </mxCell>
        <mxCell id="C-vyLk0tnHw3VtMMgP7b-28" value="" style="shape=partialRectangle;overflow=hidden;connectable=0;fillColor=none;top=0;left=0;bottom=0;right=0;fontSize=16;" parent="C-vyLk0tnHw3VtMMgP7b-27" vertex="1">
          <mxGeometry width="40" height="30" as="geometry">
            <mxRectangle width="40" height="30" as="alternateBounds" />
          </mxGeometry>
        </mxCell>
        <mxCell id="C-vyLk0tnHw3VtMMgP7b-29" value="name varchar(255) NOT NULL" style="shape=partialRectangle;overflow=hidden;connectable=0;fillColor=none;top=0;left=0;bottom=0;right=0;align=left;spacingLeft=6;fontSize=16;" parent="C-vyLk0tnHw3VtMMgP7b-27" vertex="1">
          <mxGeometry x="40" width="360" height="30" as="geometry">
            <mxRectangle width="360" height="30" as="alternateBounds" />
          </mxGeometry>
        </mxCell>
        <mxCell id="4sBfG_dxD3zG5sYm3bEw-21" value="" style="shape=partialRectangle;collapsible=0;dropTarget=0;pointerEvents=0;fillColor=none;points=[[0,0.5],[1,0.5]];portConstraint=eastwest;top=0;left=0;right=0;bottom=0;" parent="C-vyLk0tnHw3VtMMgP7b-23" vertex="1">
          <mxGeometry y="90" width="400" height="30" as="geometry" />
        </mxCell>
        <mxCell id="4sBfG_dxD3zG5sYm3bEw-22" value="" style="shape=partialRectangle;overflow=hidden;connectable=0;fillColor=none;top=0;left=0;bottom=0;right=0;fontSize=16;" parent="4sBfG_dxD3zG5sYm3bEw-21" vertex="1">
          <mxGeometry width="40" height="30" as="geometry">
            <mxRectangle width="40" height="30" as="alternateBounds" />
          </mxGeometry>
        </mxCell>
        <mxCell id="4sBfG_dxD3zG5sYm3bEw-23" value="email varchar(255) NOT NULL" style="shape=partialRectangle;overflow=hidden;connectable=0;fillColor=none;top=0;left=0;bottom=0;right=0;align=left;spacingLeft=6;fontSize=16;" parent="4sBfG_dxD3zG5sYm3bEw-21" vertex="1">
          <mxGeometry x="40" width="360" height="30" as="geometry">
            <mxRectangle width="360" height="30" as="alternateBounds" />
          </mxGeometry>
        </mxCell>
        <mxCell id="4sBfG_dxD3zG5sYm3bEw-24" value="" style="shape=partialRectangle;collapsible=0;dropTarget=0;pointerEvents=0;fillColor=none;points=[[0,0.5],[1,0.5]];portConstraint=eastwest;top=0;left=0;right=0;bottom=0;" parent="C-vyLk0tnHw3VtMMgP7b-23" vertex="1">
          <mxGeometry y="120" width="400" height="30" as="geometry" />
        </mxCell>
        <mxCell id="4sBfG_dxD3zG5sYm3bEw-25" value="" style="shape=partialRectangle;overflow=hidden;connectable=0;fillColor=none;top=0;left=0;bottom=0;right=0;fontSize=16;" parent="4sBfG_dxD3zG5sYm3bEw-24" vertex="1">
          <mxGeometry width="40" height="30" as="geometry">
            <mxRectangle width="40" height="30" as="alternateBounds" />
          </mxGeometry>
        </mxCell>
        <mxCell id="4sBfG_dxD3zG5sYm3bEw-26" value="password varchar(255) NOT NULL" style="shape=partialRectangle;overflow=hidden;connectable=0;fillColor=none;top=0;left=0;bottom=0;right=0;align=left;spacingLeft=6;fontSize=16;" parent="4sBfG_dxD3zG5sYm3bEw-24" vertex="1">
          <mxGeometry x="40" width="360" height="30" as="geometry">
            <mxRectangle width="360" height="30" as="alternateBounds" />
          </mxGeometry>
        </mxCell>
        <mxCell id="4sBfG_dxD3zG5sYm3bEw-27" value="" style="shape=partialRectangle;collapsible=0;dropTarget=0;pointerEvents=0;fillColor=none;points=[[0,0.5],[1,0.5]];portConstraint=eastwest;top=0;left=0;right=0;bottom=0;" parent="C-vyLk0tnHw3VtMMgP7b-23" vertex="1">
          <mxGeometry y="150" width="400" height="30" as="geometry" />
        </mxCell>
        <mxCell id="4sBfG_dxD3zG5sYm3bEw-28" value="" style="shape=partialRectangle;overflow=hidden;connectable=0;fillColor=none;top=0;left=0;bottom=0;right=0;fontSize=16;" parent="4sBfG_dxD3zG5sYm3bEw-27" vertex="1">
          <mxGeometry width="40" height="30" as="geometry">
            <mxRectangle width="40" height="30" as="alternateBounds" />
          </mxGeometry>
        </mxCell>
        <mxCell id="4sBfG_dxD3zG5sYm3bEw-29" value="balance decimal(10, 2) DEFAULT (0) NOT NULL" style="shape=partialRectangle;overflow=hidden;connectable=0;fillColor=none;top=0;left=0;bottom=0;right=0;align=left;spacingLeft=6;fontSize=16;" parent="4sBfG_dxD3zG5sYm3bEw-27" vertex="1">
          <mxGeometry x="40" width="360" height="30" as="geometry">
            <mxRectangle width="360" height="30" as="alternateBounds" />
          </mxGeometry>
        </mxCell>
        <mxCell id="4sBfG_dxD3zG5sYm3bEw-61" style="edgeStyle=orthogonalEdgeStyle;rounded=0;orthogonalLoop=1;jettySize=auto;html=1;exitX=0;exitY=0.5;exitDx=0;exitDy=0;entryX=0;entryY=0.5;entryDx=0;entryDy=0;startArrow=ERone;startFill=0;endArrow=ERoneToMany;endFill=0;strokeWidth=3;targetPerimeterSpacing=11;endSize=11;" parent="1" source="C-vyLk0tnHw3VtMMgP7b-24" target="C-vyLk0tnHw3VtMMgP7b-6" edge="1">
          <mxGeometry relative="1" as="geometry" />
        </mxCell>
        <mxCell id="4sBfG_dxD3zG5sYm3bEw-63" style="edgeStyle=orthogonalEdgeStyle;rounded=0;orthogonalLoop=1;jettySize=auto;html=1;exitX=1;exitY=0.5;exitDx=0;exitDy=0;entryX=0;entryY=0.5;entryDx=0;entryDy=0;startArrow=ERone;startFill=0;endArrow=ERzeroToMany;endFill=0;strokeWidth=3;targetPerimeterSpacing=11;endSize=11;" parent="1" source="C-vyLk0tnHw3VtMMgP7b-24" target="4sBfG_dxD3zG5sYm3bEw-30" edge="1">
          <mxGeometry relative="1" as="geometry">
            <Array as="points">
              <mxPoint x="740" y="265" />
              <mxPoint x="740" y="355" />
            </Array>
          </mxGeometry>
        </mxCell>
        <mxCell id="4sBfG_dxD3zG5sYm3bEw-64" style="edgeStyle=orthogonalEdgeStyle;rounded=0;orthogonalLoop=1;jettySize=auto;html=1;exitX=1;exitY=0.5;exitDx=0;exitDy=0;entryX=0;entryY=0.5;entryDx=0;entryDy=0;startArrow=ERone;startFill=0;endArrow=ERzeroToMany;endFill=0;strokeWidth=3;targetPerimeterSpacing=11;endSize=11;" parent="1" source="C-vyLk0tnHw3VtMMgP7b-24" target="4sBfG_dxD3zG5sYm3bEw-46" edge="1">
          <mxGeometry relative="1" as="geometry">
            <Array as="points">
              <mxPoint x="740" y="265" />
              <mxPoint x="740" y="385" />
            </Array>
          </mxGeometry>
        </mxCell>
        <mxCell id="4sBfG_dxD3zG5sYm3bEw-66" value="AUTENTICACIÓN Y AUTORIZACIÓN" style="swimlane;horizontal=0;whiteSpace=wrap;html=1;" parent="1" vertex="1">
          <mxGeometry x="200" y="160" width="490" height="680" as="geometry" />
        </mxCell>
        <mxCell id="C-vyLk0tnHw3VtMMgP7b-2" value="user_roles" style="shape=table;startSize=30;container=1;collapsible=1;childLayout=tableLayout;fixedRows=1;rowLines=0;fontStyle=1;align=center;resizeLast=1;strokeWidth=3;fontSize=16;" parent="4sBfG_dxD3zG5sYm3bEw-66" vertex="1">
          <mxGeometry x="120" y="300" width="320" height="130" as="geometry" />
        </mxCell>
        <mxCell id="C-vyLk0tnHw3VtMMgP7b-3" value="" style="shape=partialRectangle;collapsible=0;dropTarget=0;pointerEvents=0;fillColor=none;points=[[0,0.5],[1,0.5]];portConstraint=eastwest;top=0;left=0;right=0;bottom=1;" parent="C-vyLk0tnHw3VtMMgP7b-2" vertex="1">
          <mxGeometry y="30" width="320" height="30" as="geometry" />
        </mxCell>
        <mxCell id="C-vyLk0tnHw3VtMMgP7b-4" value="PK" style="shape=partialRectangle;overflow=hidden;connectable=0;fillColor=none;top=0;left=0;bottom=0;right=0;fontStyle=1;fontSize=16;" parent="C-vyLk0tnHw3VtMMgP7b-3" vertex="1">
          <mxGeometry width="50" height="30" as="geometry">
            <mxRectangle width="50" height="30" as="alternateBounds" />
          </mxGeometry>
        </mxCell>
        <mxCell id="C-vyLk0tnHw3VtMMgP7b-5" value="(user_id, role_id) int NOT NULL " style="shape=partialRectangle;overflow=hidden;connectable=0;fillColor=none;top=0;left=0;bottom=0;right=0;align=left;spacingLeft=6;fontStyle=5;fontSize=16;" parent="C-vyLk0tnHw3VtMMgP7b-3" vertex="1">
          <mxGeometry x="50" width="270" height="30" as="geometry">
            <mxRectangle width="270" height="30" as="alternateBounds" />
          </mxGeometry>
        </mxCell>
        <mxCell id="C-vyLk0tnHw3VtMMgP7b-6" value="" style="shape=partialRectangle;collapsible=0;dropTarget=0;pointerEvents=0;fillColor=none;points=[[0,0.5],[1,0.5]];portConstraint=eastwest;top=0;left=0;right=0;bottom=0;" parent="C-vyLk0tnHw3VtMMgP7b-2" vertex="1">
          <mxGeometry y="60" width="320" height="30" as="geometry" />
        </mxCell>
        <mxCell id="C-vyLk0tnHw3VtMMgP7b-7" value="FK1" style="shape=partialRectangle;overflow=hidden;connectable=0;fillColor=none;top=0;left=0;bottom=0;right=0;fontSize=16;" parent="C-vyLk0tnHw3VtMMgP7b-6" vertex="1">
          <mxGeometry width="50" height="30" as="geometry">
            <mxRectangle width="50" height="30" as="alternateBounds" />
          </mxGeometry>
        </mxCell>
        <mxCell id="C-vyLk0tnHw3VtMMgP7b-8" value="user_id int NOT NULL" style="shape=partialRectangle;overflow=hidden;connectable=0;fillColor=none;top=0;left=0;bottom=0;right=0;align=left;spacingLeft=6;fontSize=16;" parent="C-vyLk0tnHw3VtMMgP7b-6" vertex="1">
          <mxGeometry x="50" width="270" height="30" as="geometry">
            <mxRectangle width="270" height="30" as="alternateBounds" />
          </mxGeometry>
        </mxCell>
        <mxCell id="C-vyLk0tnHw3VtMMgP7b-9" value="" style="shape=partialRectangle;collapsible=0;dropTarget=0;pointerEvents=0;fillColor=none;points=[[0,0.5],[1,0.5]];portConstraint=eastwest;top=0;left=0;right=0;bottom=0;" parent="C-vyLk0tnHw3VtMMgP7b-2" vertex="1">
          <mxGeometry y="90" width="320" height="30" as="geometry" />
        </mxCell>
        <mxCell id="C-vyLk0tnHw3VtMMgP7b-10" value="FK2" style="shape=partialRectangle;overflow=hidden;connectable=0;fillColor=none;top=0;left=0;bottom=0;right=0;fontSize=16;" parent="C-vyLk0tnHw3VtMMgP7b-9" vertex="1">
          <mxGeometry width="50" height="30" as="geometry">
            <mxRectangle width="50" height="30" as="alternateBounds" />
          </mxGeometry>
        </mxCell>
        <mxCell id="C-vyLk0tnHw3VtMMgP7b-11" value="role_id int NOT NULL" style="shape=partialRectangle;overflow=hidden;connectable=0;fillColor=none;top=0;left=0;bottom=0;right=0;align=left;spacingLeft=6;fontSize=16;" parent="C-vyLk0tnHw3VtMMgP7b-9" vertex="1">
          <mxGeometry x="50" width="270" height="30" as="geometry">
            <mxRectangle width="270" height="30" as="alternateBounds" />
          </mxGeometry>
        </mxCell>
        <mxCell id="C-vyLk0tnHw3VtMMgP7b-13" value="role" style="shape=table;startSize=30;container=1;collapsible=1;childLayout=tableLayout;fixedRows=1;rowLines=0;fontStyle=1;align=center;resizeLast=1;strokeWidth=3;fontSize=16;" parent="4sBfG_dxD3zG5sYm3bEw-66" vertex="1">
          <mxGeometry x="130" y="480" width="280" height="100" as="geometry" />
        </mxCell>
        <mxCell id="C-vyLk0tnHw3VtMMgP7b-14" value="" style="shape=partialRectangle;collapsible=0;dropTarget=0;pointerEvents=0;fillColor=none;points=[[0,0.5],[1,0.5]];portConstraint=eastwest;top=0;left=0;right=0;bottom=1;" parent="C-vyLk0tnHw3VtMMgP7b-13" vertex="1">
          <mxGeometry y="30" width="280" height="30" as="geometry" />
        </mxCell>
        <mxCell id="C-vyLk0tnHw3VtMMgP7b-15" value="PK" style="shape=partialRectangle;overflow=hidden;connectable=0;fillColor=none;top=0;left=0;bottom=0;right=0;fontStyle=1;fontSize=16;" parent="C-vyLk0tnHw3VtMMgP7b-14" vertex="1">
          <mxGeometry width="40" height="30" as="geometry">
            <mxRectangle width="40" height="30" as="alternateBounds" />
          </mxGeometry>
        </mxCell>
        <mxCell id="C-vyLk0tnHw3VtMMgP7b-16" value="id int NOT NULL " style="shape=partialRectangle;overflow=hidden;connectable=0;fillColor=none;top=0;left=0;bottom=0;right=0;align=left;spacingLeft=6;fontStyle=5;fontSize=16;" parent="C-vyLk0tnHw3VtMMgP7b-14" vertex="1">
          <mxGeometry x="40" width="240" height="30" as="geometry">
            <mxRectangle width="240" height="30" as="alternateBounds" />
          </mxGeometry>
        </mxCell>
        <mxCell id="C-vyLk0tnHw3VtMMgP7b-17" value="" style="shape=partialRectangle;collapsible=0;dropTarget=0;pointerEvents=0;fillColor=none;points=[[0,0.5],[1,0.5]];portConstraint=eastwest;top=0;left=0;right=0;bottom=0;" parent="C-vyLk0tnHw3VtMMgP7b-13" vertex="1">
          <mxGeometry y="60" width="280" height="30" as="geometry" />
        </mxCell>
        <mxCell id="C-vyLk0tnHw3VtMMgP7b-18" value="" style="shape=partialRectangle;overflow=hidden;connectable=0;fillColor=none;top=0;left=0;bottom=0;right=0;fontSize=16;" parent="C-vyLk0tnHw3VtMMgP7b-17" vertex="1">
          <mxGeometry width="40" height="30" as="geometry">
            <mxRectangle width="40" height="30" as="alternateBounds" />
          </mxGeometry>
        </mxCell>
        <mxCell id="C-vyLk0tnHw3VtMMgP7b-19" value="name varchar(255) NOT NULL" style="shape=partialRectangle;overflow=hidden;connectable=0;fillColor=none;top=0;left=0;bottom=0;right=0;align=left;spacingLeft=6;fontSize=16;" parent="C-vyLk0tnHw3VtMMgP7b-17" vertex="1">
          <mxGeometry x="40" width="240" height="30" as="geometry">
            <mxRectangle width="240" height="30" as="alternateBounds" />
          </mxGeometry>
        </mxCell>
        <mxCell id="4sBfG_dxD3zG5sYm3bEw-62" style="edgeStyle=orthogonalEdgeStyle;rounded=0;orthogonalLoop=1;jettySize=auto;html=1;exitX=0;exitY=0.5;exitDx=0;exitDy=0;entryX=0;entryY=0.5;entryDx=0;entryDy=0;startArrow=ERone;startFill=0;endArrow=ERoneToMany;endFill=0;strokeWidth=3;targetPerimeterSpacing=11;endSize=11;" parent="4sBfG_dxD3zG5sYm3bEw-66" source="C-vyLk0tnHw3VtMMgP7b-14" target="C-vyLk0tnHw3VtMMgP7b-9" edge="1">
          <mxGeometry relative="1" as="geometry">
            <Array as="points">
              <mxPoint x="50" y="525" />
              <mxPoint x="50" y="405" />
            </Array>
          </mxGeometry>
        </mxCell>
        <mxCell id="4sBfG_dxD3zG5sYm3bEw-67" value="TRANSACCIONES" style="swimlane;horizontal=0;whiteSpace=wrap;html=1;flipH=1;" parent="1" vertex="1">
          <mxGeometry x="780" y="160" width="520" height="680" as="geometry" />
        </mxCell>
        <mxCell id="4sBfG_dxD3zG5sYm3bEw-11" value="transactions" style="shape=table;startSize=30;container=1;collapsible=1;childLayout=tableLayout;fixedRows=1;rowLines=0;fontStyle=1;align=center;resizeLast=1;strokeWidth=3;fontSize=16;" parent="4sBfG_dxD3zG5sYm3bEw-67" vertex="1">
          <mxGeometry x="140" y="60" width="290" height="250" as="geometry" />
        </mxCell>
        <mxCell id="4sBfG_dxD3zG5sYm3bEw-12" value="" style="shape=partialRectangle;collapsible=0;dropTarget=0;pointerEvents=0;fillColor=none;points=[[0,0.5],[1,0.5]];portConstraint=eastwest;top=0;left=0;right=0;bottom=1;" parent="4sBfG_dxD3zG5sYm3bEw-11" vertex="1">
          <mxGeometry y="30" width="290" height="30" as="geometry" />
        </mxCell>
        <mxCell id="4sBfG_dxD3zG5sYm3bEw-13" value="PK" style="shape=partialRectangle;overflow=hidden;connectable=0;fillColor=none;top=0;left=0;bottom=0;right=0;fontStyle=1;fontSize=16;" parent="4sBfG_dxD3zG5sYm3bEw-12" vertex="1">
          <mxGeometry width="50" height="30" as="geometry">
            <mxRectangle width="50" height="30" as="alternateBounds" />
          </mxGeometry>
        </mxCell>
        <mxCell id="4sBfG_dxD3zG5sYm3bEw-14" value="id int NOT NULL " style="shape=partialRectangle;overflow=hidden;connectable=0;fillColor=none;top=0;left=0;bottom=0;right=0;align=left;spacingLeft=6;fontStyle=5;fontSize=16;" parent="4sBfG_dxD3zG5sYm3bEw-12" vertex="1">
          <mxGeometry x="50" width="240" height="30" as="geometry">
            <mxRectangle width="240" height="30" as="alternateBounds" />
          </mxGeometry>
        </mxCell>
        <mxCell id="4sBfG_dxD3zG5sYm3bEw-15" value="" style="shape=partialRectangle;collapsible=0;dropTarget=0;pointerEvents=0;fillColor=none;points=[[0,0.5],[1,0.5]];portConstraint=eastwest;top=0;left=0;right=0;bottom=0;" parent="4sBfG_dxD3zG5sYm3bEw-11" vertex="1">
          <mxGeometry y="60" width="290" height="30" as="geometry" />
        </mxCell>
        <mxCell id="4sBfG_dxD3zG5sYm3bEw-16" value="" style="shape=partialRectangle;overflow=hidden;connectable=0;fillColor=none;top=0;left=0;bottom=0;right=0;fontSize=16;" parent="4sBfG_dxD3zG5sYm3bEw-15" vertex="1">
          <mxGeometry width="50" height="30" as="geometry">
            <mxRectangle width="50" height="30" as="alternateBounds" />
          </mxGeometry>
        </mxCell>
        <mxCell id="4sBfG_dxD3zG5sYm3bEw-17" value="total decimal(10, 2) NOT NULL" style="shape=partialRectangle;overflow=hidden;connectable=0;fillColor=none;top=0;left=0;bottom=0;right=0;align=left;spacingLeft=6;fontSize=16;" parent="4sBfG_dxD3zG5sYm3bEw-15" vertex="1">
          <mxGeometry x="50" width="240" height="30" as="geometry">
            <mxRectangle width="240" height="30" as="alternateBounds" />
          </mxGeometry>
        </mxCell>
        <mxCell id="4sBfG_dxD3zG5sYm3bEw-18" value="" style="shape=partialRectangle;collapsible=0;dropTarget=0;pointerEvents=0;fillColor=none;points=[[0,0.5],[1,0.5]];portConstraint=eastwest;top=0;left=0;right=0;bottom=0;" parent="4sBfG_dxD3zG5sYm3bEw-11" vertex="1">
          <mxGeometry y="90" width="290" height="30" as="geometry" />
        </mxCell>
        <mxCell id="4sBfG_dxD3zG5sYm3bEw-19" value="" style="shape=partialRectangle;overflow=hidden;connectable=0;fillColor=none;top=0;left=0;bottom=0;right=0;fontSize=16;" parent="4sBfG_dxD3zG5sYm3bEw-18" vertex="1">
          <mxGeometry width="50" height="30" as="geometry">
            <mxRectangle width="50" height="30" as="alternateBounds" />
          </mxGeometry>
        </mxCell>
        <mxCell id="4sBfG_dxD3zG5sYm3bEw-20" value="create_at timestamp NOT NULL" style="shape=partialRectangle;overflow=hidden;connectable=0;fillColor=none;top=0;left=0;bottom=0;right=0;align=left;spacingLeft=6;fontSize=16;" parent="4sBfG_dxD3zG5sYm3bEw-18" vertex="1">
          <mxGeometry x="50" width="240" height="30" as="geometry">
            <mxRectangle width="240" height="30" as="alternateBounds" />
          </mxGeometry>
        </mxCell>
        <mxCell id="4sBfG_dxD3zG5sYm3bEw-30" value="" style="shape=partialRectangle;collapsible=0;dropTarget=0;pointerEvents=0;fillColor=none;points=[[0,0.5],[1,0.5]];portConstraint=eastwest;top=0;left=0;right=0;bottom=0;" parent="4sBfG_dxD3zG5sYm3bEw-11" vertex="1">
          <mxGeometry y="120" width="290" height="30" as="geometry" />
        </mxCell>
        <mxCell id="4sBfG_dxD3zG5sYm3bEw-31" value="FK1" style="shape=partialRectangle;overflow=hidden;connectable=0;fillColor=none;top=0;left=0;bottom=0;right=0;fontSize=16;" parent="4sBfG_dxD3zG5sYm3bEw-30" vertex="1">
          <mxGeometry width="50" height="30" as="geometry">
            <mxRectangle width="50" height="30" as="alternateBounds" />
          </mxGeometry>
        </mxCell>
        <mxCell id="4sBfG_dxD3zG5sYm3bEw-32" value="sender_user_id int NOT NULL" style="shape=partialRectangle;overflow=hidden;connectable=0;fillColor=none;top=0;left=0;bottom=0;right=0;align=left;spacingLeft=6;fontSize=16;" parent="4sBfG_dxD3zG5sYm3bEw-30" vertex="1">
          <mxGeometry x="50" width="240" height="30" as="geometry">
            <mxRectangle width="240" height="30" as="alternateBounds" />
          </mxGeometry>
        </mxCell>
        <mxCell id="4sBfG_dxD3zG5sYm3bEw-46" value="" style="shape=partialRectangle;collapsible=0;dropTarget=0;pointerEvents=0;fillColor=none;points=[[0,0.5],[1,0.5]];portConstraint=eastwest;top=0;left=0;right=0;bottom=0;" parent="4sBfG_dxD3zG5sYm3bEw-11" vertex="1">
          <mxGeometry y="150" width="290" height="30" as="geometry" />
        </mxCell>
        <mxCell id="4sBfG_dxD3zG5sYm3bEw-47" value="FK2" style="shape=partialRectangle;overflow=hidden;connectable=0;fillColor=none;top=0;left=0;bottom=0;right=0;fontSize=16;" parent="4sBfG_dxD3zG5sYm3bEw-46" vertex="1">
          <mxGeometry width="50" height="30" as="geometry">
            <mxRectangle width="50" height="30" as="alternateBounds" />
          </mxGeometry>
        </mxCell>
        <mxCell id="4sBfG_dxD3zG5sYm3bEw-48" value="receiver_user_id int NOT NULL" style="shape=partialRectangle;overflow=hidden;connectable=0;fillColor=none;top=0;left=0;bottom=0;right=0;align=left;spacingLeft=6;fontSize=16;" parent="4sBfG_dxD3zG5sYm3bEw-46" vertex="1">
          <mxGeometry x="50" width="240" height="30" as="geometry">
            <mxRectangle width="240" height="30" as="alternateBounds" />
          </mxGeometry>
        </mxCell>
        <mxCell id="4sBfG_dxD3zG5sYm3bEw-49" value="" style="shape=partialRectangle;collapsible=0;dropTarget=0;pointerEvents=0;fillColor=none;points=[[0,0.5],[1,0.5]];portConstraint=eastwest;top=0;left=0;right=0;bottom=0;" parent="4sBfG_dxD3zG5sYm3bEw-11" vertex="1">
          <mxGeometry y="180" width="290" height="30" as="geometry" />
        </mxCell>
        <mxCell id="4sBfG_dxD3zG5sYm3bEw-50" value="FK3" style="shape=partialRectangle;overflow=hidden;connectable=0;fillColor=none;top=0;left=0;bottom=0;right=0;fontSize=16;" parent="4sBfG_dxD3zG5sYm3bEw-49" vertex="1">
          <mxGeometry width="50" height="30" as="geometry">
            <mxRectangle width="50" height="30" as="alternateBounds" />
          </mxGeometry>
        </mxCell>
        <mxCell id="4sBfG_dxD3zG5sYm3bEw-51" value="currency_id int NOT NULL" style="shape=partialRectangle;overflow=hidden;connectable=0;fillColor=none;top=0;left=0;bottom=0;right=0;align=left;spacingLeft=6;fontSize=16;" parent="4sBfG_dxD3zG5sYm3bEw-49" vertex="1">
          <mxGeometry x="50" width="240" height="30" as="geometry">
            <mxRectangle width="240" height="30" as="alternateBounds" />
          </mxGeometry>
        </mxCell>
        <mxCell id="4sBfG_dxD3zG5sYm3bEw-80" value="" style="shape=partialRectangle;collapsible=0;dropTarget=0;pointerEvents=0;fillColor=none;points=[[0,0.5],[1,0.5]];portConstraint=eastwest;top=0;left=0;right=0;bottom=0;" parent="4sBfG_dxD3zG5sYm3bEw-11" vertex="1">
          <mxGeometry y="210" width="290" height="30" as="geometry" />
        </mxCell>
        <mxCell id="4sBfG_dxD3zG5sYm3bEw-81" value="FK4" style="shape=partialRectangle;overflow=hidden;connectable=0;fillColor=none;top=0;left=0;bottom=0;right=0;fontSize=16;" parent="4sBfG_dxD3zG5sYm3bEw-80" vertex="1">
          <mxGeometry width="50" height="30" as="geometry">
            <mxRectangle width="50" height="30" as="alternateBounds" />
          </mxGeometry>
        </mxCell>
        <mxCell id="4sBfG_dxD3zG5sYm3bEw-82" value="type_id int NOT NULL" style="shape=partialRectangle;overflow=hidden;connectable=0;fillColor=none;top=0;left=0;bottom=0;right=0;align=left;spacingLeft=6;fontSize=16;" parent="4sBfG_dxD3zG5sYm3bEw-80" vertex="1">
          <mxGeometry x="50" width="240" height="30" as="geometry">
            <mxRectangle width="240" height="30" as="alternateBounds" />
          </mxGeometry>
        </mxCell>
        <mxCell id="4sBfG_dxD3zG5sYm3bEw-1" value="currencies" style="shape=table;startSize=30;container=1;collapsible=1;childLayout=tableLayout;fixedRows=1;rowLines=0;fontStyle=1;align=center;resizeLast=1;strokeWidth=3;fontSize=16;" parent="4sBfG_dxD3zG5sYm3bEw-67" vertex="1">
          <mxGeometry x="142.5" y="500" width="285" height="130" as="geometry" />
        </mxCell>
        <mxCell id="4sBfG_dxD3zG5sYm3bEw-2" value="" style="shape=partialRectangle;collapsible=0;dropTarget=0;pointerEvents=0;fillColor=none;points=[[0,0.5],[1,0.5]];portConstraint=eastwest;top=0;left=0;right=0;bottom=1;" parent="4sBfG_dxD3zG5sYm3bEw-1" vertex="1">
          <mxGeometry y="30" width="285" height="30" as="geometry" />
        </mxCell>
        <mxCell id="4sBfG_dxD3zG5sYm3bEw-3" value="PK" style="shape=partialRectangle;overflow=hidden;connectable=0;fillColor=none;top=0;left=0;bottom=0;right=0;fontStyle=1;fontSize=16;" parent="4sBfG_dxD3zG5sYm3bEw-2" vertex="1">
          <mxGeometry width="37.5" height="30" as="geometry">
            <mxRectangle width="37.5" height="30" as="alternateBounds" />
          </mxGeometry>
        </mxCell>
        <mxCell id="4sBfG_dxD3zG5sYm3bEw-4" value="id int NOT NULL " style="shape=partialRectangle;overflow=hidden;connectable=0;fillColor=none;top=0;left=0;bottom=0;right=0;align=left;spacingLeft=6;fontStyle=5;fontSize=16;" parent="4sBfG_dxD3zG5sYm3bEw-2" vertex="1">
          <mxGeometry x="37.5" width="247.5" height="30" as="geometry">
            <mxRectangle width="247.5" height="30" as="alternateBounds" />
          </mxGeometry>
        </mxCell>
        <mxCell id="4sBfG_dxD3zG5sYm3bEw-5" value="" style="shape=partialRectangle;collapsible=0;dropTarget=0;pointerEvents=0;fillColor=none;points=[[0,0.5],[1,0.5]];portConstraint=eastwest;top=0;left=0;right=0;bottom=0;" parent="4sBfG_dxD3zG5sYm3bEw-1" vertex="1">
          <mxGeometry y="60" width="285" height="30" as="geometry" />
        </mxCell>
        <mxCell id="4sBfG_dxD3zG5sYm3bEw-6" value="" style="shape=partialRectangle;overflow=hidden;connectable=0;fillColor=none;top=0;left=0;bottom=0;right=0;fontSize=16;" parent="4sBfG_dxD3zG5sYm3bEw-5" vertex="1">
          <mxGeometry width="37.5" height="30" as="geometry">
            <mxRectangle width="37.5" height="30" as="alternateBounds" />
          </mxGeometry>
        </mxCell>
        <mxCell id="4sBfG_dxD3zG5sYm3bEw-7" value="name varchar(255) NOT NULL" style="shape=partialRectangle;overflow=hidden;connectable=0;fillColor=none;top=0;left=0;bottom=0;right=0;align=left;spacingLeft=6;fontSize=16;" parent="4sBfG_dxD3zG5sYm3bEw-5" vertex="1">
          <mxGeometry x="37.5" width="247.5" height="30" as="geometry">
            <mxRectangle width="247.5" height="30" as="alternateBounds" />
          </mxGeometry>
        </mxCell>
        <mxCell id="4sBfG_dxD3zG5sYm3bEw-8" value="" style="shape=partialRectangle;collapsible=0;dropTarget=0;pointerEvents=0;fillColor=none;points=[[0,0.5],[1,0.5]];portConstraint=eastwest;top=0;left=0;right=0;bottom=0;" parent="4sBfG_dxD3zG5sYm3bEw-1" vertex="1">
          <mxGeometry y="90" width="285" height="30" as="geometry" />
        </mxCell>
        <mxCell id="4sBfG_dxD3zG5sYm3bEw-9" value="" style="shape=partialRectangle;overflow=hidden;connectable=0;fillColor=none;top=0;left=0;bottom=0;right=0;fontSize=16;" parent="4sBfG_dxD3zG5sYm3bEw-8" vertex="1">
          <mxGeometry width="37.5" height="30" as="geometry">
            <mxRectangle width="37.5" height="30" as="alternateBounds" />
          </mxGeometry>
        </mxCell>
        <mxCell id="4sBfG_dxD3zG5sYm3bEw-10" value="symbol varchar(10) NOT NULL" style="shape=partialRectangle;overflow=hidden;connectable=0;fillColor=none;top=0;left=0;bottom=0;right=0;align=left;spacingLeft=6;fontSize=16;" parent="4sBfG_dxD3zG5sYm3bEw-8" vertex="1">
          <mxGeometry x="37.5" width="247.5" height="30" as="geometry">
            <mxRectangle width="247.5" height="30" as="alternateBounds" />
          </mxGeometry>
        </mxCell>
        <mxCell id="4sBfG_dxD3zG5sYm3bEw-65" style="edgeStyle=orthogonalEdgeStyle;rounded=0;orthogonalLoop=1;jettySize=auto;html=1;exitX=0;exitY=0.5;exitDx=0;exitDy=0;entryX=0;entryY=0.5;entryDx=0;entryDy=0;startArrow=ERone;startFill=0;endArrow=ERzeroToMany;endFill=0;strokeWidth=3;targetPerimeterSpacing=11;endSize=11;" parent="4sBfG_dxD3zG5sYm3bEw-67" source="4sBfG_dxD3zG5sYm3bEw-2" target="4sBfG_dxD3zG5sYm3bEw-49" edge="1">
          <mxGeometry relative="1" as="geometry">
            <Array as="points">
              <mxPoint x="30" y="545" />
              <mxPoint x="30" y="255" />
            </Array>
          </mxGeometry>
        </mxCell>
        <mxCell id="4sBfG_dxD3zG5sYm3bEw-70" value="transaction_type" style="shape=table;startSize=30;container=1;collapsible=1;childLayout=tableLayout;fixedRows=1;rowLines=0;fontStyle=1;align=center;resizeLast=1;strokeWidth=3;fontSize=16;" parent="4sBfG_dxD3zG5sYm3bEw-67" vertex="1">
          <mxGeometry x="142.5" y="360" width="285" height="100" as="geometry" />
        </mxCell>
        <mxCell id="4sBfG_dxD3zG5sYm3bEw-71" value="" style="shape=partialRectangle;collapsible=0;dropTarget=0;pointerEvents=0;fillColor=none;points=[[0,0.5],[1,0.5]];portConstraint=eastwest;top=0;left=0;right=0;bottom=1;" parent="4sBfG_dxD3zG5sYm3bEw-70" vertex="1">
          <mxGeometry y="30" width="285" height="30" as="geometry" />
        </mxCell>
        <mxCell id="4sBfG_dxD3zG5sYm3bEw-72" value="PK" style="shape=partialRectangle;overflow=hidden;connectable=0;fillColor=none;top=0;left=0;bottom=0;right=0;fontStyle=1;fontSize=16;" parent="4sBfG_dxD3zG5sYm3bEw-71" vertex="1">
          <mxGeometry width="37.5" height="30" as="geometry">
            <mxRectangle width="37.5" height="30" as="alternateBounds" />
          </mxGeometry>
        </mxCell>
        <mxCell id="4sBfG_dxD3zG5sYm3bEw-73" value="id int NOT NULL " style="shape=partialRectangle;overflow=hidden;connectable=0;fillColor=none;top=0;left=0;bottom=0;right=0;align=left;spacingLeft=6;fontStyle=5;fontSize=16;" parent="4sBfG_dxD3zG5sYm3bEw-71" vertex="1">
          <mxGeometry x="37.5" width="247.5" height="30" as="geometry">
            <mxRectangle width="247.5" height="30" as="alternateBounds" />
          </mxGeometry>
        </mxCell>
        <mxCell id="4sBfG_dxD3zG5sYm3bEw-74" value="" style="shape=partialRectangle;collapsible=0;dropTarget=0;pointerEvents=0;fillColor=none;points=[[0,0.5],[1,0.5]];portConstraint=eastwest;top=0;left=0;right=0;bottom=0;" parent="4sBfG_dxD3zG5sYm3bEw-70" vertex="1">
          <mxGeometry y="60" width="285" height="30" as="geometry" />
        </mxCell>
        <mxCell id="4sBfG_dxD3zG5sYm3bEw-75" value="" style="shape=partialRectangle;overflow=hidden;connectable=0;fillColor=none;top=0;left=0;bottom=0;right=0;fontSize=16;" parent="4sBfG_dxD3zG5sYm3bEw-74" vertex="1">
          <mxGeometry width="37.5" height="30" as="geometry">
            <mxRectangle width="37.5" height="30" as="alternateBounds" />
          </mxGeometry>
        </mxCell>
        <mxCell id="4sBfG_dxD3zG5sYm3bEw-76" value="name varchar(255) NOT NULL" style="shape=partialRectangle;overflow=hidden;connectable=0;fillColor=none;top=0;left=0;bottom=0;right=0;align=left;spacingLeft=6;fontSize=16;" parent="4sBfG_dxD3zG5sYm3bEw-74" vertex="1">
          <mxGeometry x="37.5" width="247.5" height="30" as="geometry">
            <mxRectangle width="247.5" height="30" as="alternateBounds" />
          </mxGeometry>
        </mxCell>
        <mxCell id="4sBfG_dxD3zG5sYm3bEw-83" style="edgeStyle=orthogonalEdgeStyle;rounded=0;orthogonalLoop=1;jettySize=auto;html=1;exitX=0;exitY=0.5;exitDx=0;exitDy=0;entryX=0;entryY=0.5;entryDx=0;entryDy=0;startArrow=ERone;startFill=0;endArrow=ERzeroToMany;endFill=0;strokeWidth=3;targetPerimeterSpacing=11;endSize=11;" parent="4sBfG_dxD3zG5sYm3bEw-67" source="4sBfG_dxD3zG5sYm3bEw-71" target="4sBfG_dxD3zG5sYm3bEw-80" edge="1">
          <mxGeometry relative="1" as="geometry">
            <Array as="points">
              <mxPoint x="60" y="405" />
              <mxPoint x="60" y="285" />
            </Array>
          </mxGeometry>
        </mxCell>
        <mxCell id="4sBfG_dxD3zG5sYm3bEw-69" value="&lt;h1 style=&quot;margin-top: 0px; font-size: 16px;&quot;&gt;&lt;u&gt;Descripción&lt;/u&gt;&lt;/h1&gt;&lt;p style=&quot;font-size: 16px;&quot;&gt;Este diagrama representa un modelo entidad relación de la posible base de datos para la billetera virtual.&lt;/p&gt;&lt;p style=&quot;font-size: 16px;&quot;&gt;&lt;b&gt;Autenticación:&lt;/b&gt;&lt;/p&gt;&lt;p style=&quot;font-size: 16px;&quot;&gt;&lt;/p&gt;&lt;ul style=&quot;font-size: 16px;&quot;&gt;&lt;li style=&quot;font-size: 16px;&quot;&gt;&amp;nbsp;Usuario: puede tener uno o muchos roles, por eso la relación de uno a muchos con la tabla user_roles y la tabla role tiene una relación de uno a muchos con la tabla user_roles para hacer la conexión.&lt;/li&gt;&lt;/ul&gt;&lt;div style=&quot;font-size: 16px;&quot;&gt;&lt;b&gt;Transacciones:&lt;/b&gt;&lt;/div&gt;&lt;div style=&quot;font-size: 16px;&quot;&gt;&lt;ul style=&quot;font-size: 16px;&quot;&gt;&lt;li style=&quot;font-size: 16px;&quot;&gt;Usuario: un usuario puede hacer cero o muchas transacciones, por eso la relación de uno a cero o muchas.&lt;/li&gt;&lt;li style=&quot;font-size: 16px;&quot;&gt;Transacciones: la tabla &quot;transactions&quot; contiene información importante sobre el movimiento de dinero, por eso contiene la clave foránea de usuario que envía, usuario que recibe, el monto que envía y la moneda en la que se hace la transacción, además de un dato importante, el tipo de transacción que hace, si es depósito, envío de dinero, retiro de dinero, etc.&lt;/li&gt;&lt;/ul&gt;&lt;/div&gt;&lt;p style=&quot;font-size: 16px;&quot;&gt;&lt;/p&gt;" style="text;html=1;whiteSpace=wrap;overflow=hidden;rounded=0;fontSize=16;" parent="1" vertex="1">
          <mxGeometry x="200" y="860" width="1090" height="330" as="geometry" />
        </mxCell>
        <mxCell id="4sBfG_dxD3zG5sYm3bEw-84" value="Modelo Entidad Relación" style="text;html=1;align=center;verticalAlign=middle;whiteSpace=wrap;rounded=0;fontSize=21;" parent="1" vertex="1">
          <mxGeometry x="410" y="30" width="650" height="30" as="geometry" />
        </mxCell>
        <mxCell id="4sBfG_dxD3zG5sYm3bEw-85" value="Muestra un tentativo modelo entidad relación para la Base de datos de la billetera virtual" style="text;html=1;align=center;verticalAlign=middle;whiteSpace=wrap;rounded=0;fontSize=16;" parent="1" vertex="1">
          <mxGeometry x="335" y="70" width="800" height="30" as="geometry" />
        </mxCell>
      </root>
    </mxGraphModel>
  </diagram>
</mxfile>
